<?xml version="1.0" encoding="UTF-8"?>
<svg width="800" height="600" viewBox="0 0 800 600" fill="none" xmlns="http://www.w3.org/2000/svg">
  <!-- Background Elements -->
  <path d="M0 0h800v600H0z" fill="#F8FAFC"/>
  <path d="M50 50h700v500H50z" fill="#EFF6FF" rx="20"/>
  
  <!-- Main Screen -->
  <rect x="100" y="100" width="400" height="300" rx="10" fill="white" stroke="#3B82F6" stroke-width="4"/>
  
  <!-- Interactive Elements -->
  <g class="interactive-elements">
    <!-- Floating Windows -->
    <rect x="150" y="150" width="150" height="100" rx="8" fill="#DBEAFE" stroke="#2563EB" stroke-width="2">
      <animate attributeName="y" values="150;160;150" dur="3s" repeatCount="indefinite"/>
    </rect>
    <rect x="320" y="180" width="150" height="100" rx="8" fill="#BFDBFE" stroke="#2563EB" stroke-width="2">
      <animate attributeName="y" values="180;170;180" dur="3.5s" repeatCount="indefinite"/>
    </rect>
    
    <!-- Interactive Buttons -->
    <circle cx="180" cy="300" r="15" fill="#3B82F6">
      <animate attributeName="r" values="15;18;15" dur="1s" repeatCount="indefinite"/>
    </circle>
    <circle cx="240" cy="300" r="15" fill="#2563EB"/>
    <circle cx="300" cy="300" r="15" fill="#1D4ED8"/>
  </g>
  
  <!-- Person Silhouette -->
  <path d="M600 200c0 38.66-31.34 70-70 70s-70-31.34-70-70 31.34-70 70-70 70 31.34 70 70z" fill="#93C5FD"/>
  <path d="M600 400v-50c0-38.66-31.34-70-70-70s-70 31.34-70 70v50h140z" fill="#93C5FD"/>
  
  <!-- Connection Lines -->
  <g stroke="#60A5FA" stroke-width="3" stroke-dasharray="8 8">
    <path d="M460 270c40-20 80-20 120-20">
      <animate attributeName="stroke-dashoffset" values="16;0" dur="1s" repeatCount="indefinite"/>
    </path>
    <path d="M460 230c40-40 80-40 120-30">
      <animate attributeName="stroke-dashoffset" values="16;0" dur="1s" repeatCount="indefinite"/>
    </path>
  </g>
  
  <!-- Floating Icons -->
  <g class="floating-elements">
    <!-- Chat Bubbles -->
    <path d="M650 150l20-20v40z" fill="#3B82F6">
      <animate attributeName="transform" type="translate" values="0,0; 0,10; 0,0" dur="2s" repeatCount="indefinite"/>
    </path>
    <circle cx="700" cy="180" r="10" fill="#2563EB">
      <animate attributeName="transform" type="translate" values="0,0; 0,-10; 0,0" dur="2.5s" repeatCount="indefinite"/>
    </circle>
    <path d="M680 220l-20 20v-40z" fill="#1D4ED8">
      <animate attributeName="transform" type="translate" values="0,0; 0,10; 0,0" dur="3s" repeatCount="indefinite"/>
    </path>
  </g>
  
  <!-- Decorative Patterns -->
  <g stroke="#E5E7EB" stroke-width="2">
    <circle cx="100" cy="500" r="20" fill="none"/>
    <circle cx="700" cy="100" r="20" fill="none"/>
    <path d="M120 120l-40-40M680 480l40 40" stroke-linecap="round"/>
  </g>
  
  <!-- Gradient Overlays -->
  <defs>
    <linearGradient id="shine" x1="0" y1="0" x2="1" y2="1">
      <stop offset="0%" stop-color="white" stop-opacity="0.1"/>
      <stop offset="100%" stop-color="white" stop-opacity="0"/>
    </linearGradient>
  </defs>
  <rect x="100" y="100" width="400" height="300" rx="10" fill="url(#shine)"/>
</svg> 