<?xml version="1.0" encoding="UTF-8"?>
<svg width="800" height="600" viewBox="0 0 800 600" fill="none" xmlns="http://www.w3.org/2000/svg">
  <!-- Background Elements -->
  <path d="M0 0h800v600H0z" fill="#F8FAFC"/>
  <path d="M50 50h700v500H50z" fill="#ECFDF5" rx="20"/>
  
  <!-- Central Hub -->
  <g class="central-hub">
    <circle cx="400" cy="300" r="60" fill="#10B981" stroke="#059669" stroke-width="4"/>
    <path d="M380 300h40M400 280v40" stroke="white" stroke-width="4"/>
  </g>
  
  <!-- Connected People -->
  <g class="people">
    <!-- Person 1 (Top) -->
    <g transform="translate(400,100)">
      <circle r="40" fill="#34D399"/>
      <path d="M-20 20c0-22.09 17.91-40 40-40s40 17.91 40 40" stroke="#059669" stroke-width="4"/>
      <animate attributeName="transform" type="rotate" values="0;5;0;-5;0" dur="4s" repeatCount="indefinite" additive="sum"/>
    </g>
    
    <!-- Person 2 (Right) -->
    <g transform="translate(600,300)">
      <circle r="40" fill="#34D399"/>
      <path d="M-20 20c0-22.09 17.91-40 40-40s40 17.91 40 40" stroke="#059669" stroke-width="4"/>
      <animate attributeName="transform" type="rotate" values="0;-5;0;5;0" dur="3.5s" repeatCount="indefinite" additive="sum"/>
    </g>
    
    <!-- Person 3 (Bottom) -->
    <g transform="translate(400,500)">
      <circle r="40" fill="#34D399"/>
      <path d="M-20 20c0-22.09 17.91-40 40-40s40 17.91 40 40" stroke="#059669" stroke-width="4"/>
      <animate attributeName="transform" type="rotate" values="0;5;0;-5;0" dur="4.5s" repeatCount="indefinite" additive="sum"/>
    </g>
    
    <!-- Person 4 (Left) -->
    <g transform="translate(200,300)">
      <circle r="40" fill="#34D399"/>
      <path d="M-20 20c0-22.09 17.91-40 40-40s40 17.91 40 40" stroke="#059669" stroke-width="4"/>
      <animate attributeName="transform" type="rotate" values="0;-5;0;5;0" dur="4s" repeatCount="indefinite" additive="sum"/>
    </g>
  </g>
  
  <!-- Connection Lines -->
  <g class="connections" stroke="#6EE7B7" stroke-width="3">
    <!-- Animated Connection Lines -->
    <path d="M400 160L400 240">
      <animate attributeName="stroke-dasharray" values="0,20;20,0" dur="2s" repeatCount="indefinite"/>
    </path>
    <path d="M540 300L460 300">
      <animate attributeName="stroke-dasharray" values="0,20;20,0" dur="2s" repeatCount="indefinite"/>
    </path>
    <path d="M400 440L400 360">
      <animate attributeName="stroke-dasharray" values="0,20;20,0" dur="2s" repeatCount="indefinite"/>
    </path>
    <path d="M260 300L340 300">
      <animate attributeName="stroke-dasharray" values="0,20;20,0" dur="2s" repeatCount="indefinite"/>
    </path>
  </g>
  
  <!-- Floating Elements -->
  <g class="floating-elements">
    <!-- Connection Dots -->
    <circle cx="400" cy="200" r="8" fill="#059669">
      <animate attributeName="r" values="8;10;8" dur="2s" repeatCount="indefinite"/>
    </circle>
    <circle cx="500" cy="300" r="8" fill="#059669">
      <animate attributeName="r" values="8;10;8" dur="2.5s" repeatCount="indefinite"/>
    </circle>
    <circle cx="400" cy="400" r="8" fill="#059669">
      <animate attributeName="r" values="8;10;8" dur="3s" repeatCount="indefinite"/>
    </circle>
    <circle cx="300" cy="300" r="8" fill="#059669">
      <animate attributeName="r" values="8;10;8" dur="2.8s" repeatCount="indefinite"/>
    </circle>
  </g>
  
  <!-- Decorative Elements -->
  <g class="decorative" opacity="0.2">
    <circle cx="100" cy="100" r="20" stroke="#059669" stroke-width="2" fill="none"/>
    <circle cx="700" cy="500" r="20" stroke="#059669" stroke-width="2" fill="none"/>
    <path d="M120 120l-40-40M680 480l40 40" stroke="#059669" stroke-width="2"/>
  </g>
  
  <!-- Gradient Overlays -->
  <defs>
    <linearGradient id="network-glow" x1="0" y1="0" x2="1" y2="1">
      <stop offset="0%" stop-color="#10B981" stop-opacity="0.1"/>
      <stop offset="100%" stop-color="#10B981" stop-opacity="0"/>
    </linearGradient>
  </defs>
  <rect x="50" y="50" width="700" height="500" rx="20" fill="url(#network-glow)"/>
</svg> 